<?xml version="1.0" encoding="UTF-8"?>
<svg id="Layer_1" data-name="Layer 1" xmlns="http://www.w3.org/2000/svg" viewBox="0 0 108.71 22.39">
  <defs>
    <style>
      .cls-1 {
        fill: #fff;
      }
    </style>
  </defs>
  <path class="cls-1" d="M50.3,10.06v-3.99c0-.09-.05-.17-.13-.22l-.46-.27-.51.23v.34l.46.22v3.32l.64.37Z"/>
  <path class="cls-1" d="M51.88,10.95c.13.07.29.02.35-.12l.57-1.27c.1-.22.16-.53.16-.89,0-.5-.05-.76-.18-1.07-.14-.3-.37-.54-.68-.72s-.57-.2-.72-.05c-.13.13-.2.3-.2.87s.05.84.2,1.12c.13.24.3.43.52.55.05.02.12.06.18.07l-.61,1.26.42.24ZM51.89,8.7c-.08-.14-.08-.36-.08-.67,0-.25,0-.51.07-.57.01-.01.03-.01.06-.01.03,0,.07.01.12.03.08.05.14.12.18.2.07.15.08.36.08.67,0,.25,0,.51-.07.57-.03.03-.09.02-.16-.01-.08-.05-.15-.13-.2-.21Z"/>
  <path class="cls-1" d="M53.68,10.77v.3c0,.31.07.55.24.82.14.23.37.46.62.6.16.09.32.14.46.14.07,0,.13-.01.17-.03.24-.12.27-.36.27-.85,0-.34-.01-.55-.12-.82-.03-.1-.09-.2-.18-.32.07-.02.13-.06.17-.13.09-.14.1-.35.1-.61,0-.4-.08-.73-.25-.99-.14-.23-.35-.43-.59-.57-.25-.14-.46-.17-.61-.09-.17.09-.25.27-.25.58v.27l.64.36v-.35c0-.08.01-.18.09-.18.02,0,.07.01.1.03.07.05.13.1.17.18.06.1.07.22.07.5s-.01.39-.07.44c-.02.01-.06.02-.14-.02l-.24-.14v.59l.21.12c.08.05.15.13.2.21.06.12.08.23.08.66,0,.3-.02.44-.08.49-.03.02-.08.02-.15-.02-.16-.09-.27-.28-.27-.47v-.29l-.65-.37Z"/>
  <path class="cls-1" d="M57.12,9.73c-.31-.17-.57-.2-.72-.05-.13.13-.2.3-.2.87s.05.83.2,1.12c.13.24.3.43.52.55.05.02.12.06.18.07l-.59,1.24v.03s.39.23.39.23c.13.07.29.02.35-.12l.57-1.27c.1-.22.16-.53.16-.89,0-.5-.05-.76-.18-1.07-.14-.3-.37-.54-.68-.72ZM57.28,11.78s-.09.02-.16-.01c-.08-.05-.15-.12-.2-.21-.07-.15-.08-.36-.08-.67,0-.25,0-.51.07-.57.01-.01.03-.01.06-.01.03,0,.07.01.12.03.08.05.14.12.18.2.07.14.08.36.08.67,0,.25,0,.51-.07.57Z"/>
  <path class="cls-1" d="M54.41,3.03c-1.86,0-3.7.31-5.48.94l11.36,6.42c.72-1.8,1.21-3.7,1.46-5.66-2.36-1.13-4.82-1.7-7.34-1.7Z"/>
  <path class="cls-1" d="M54.41,18.73c1.18-1.05,2.23-2.21,3.14-3.45l-9.13-5.14c1.28,3.27,3.3,6.2,5.98,8.6Z"/>
  <path class="cls-1" d="M70.42,1.53c-.12-.02-.23-.02-.36-.02-1.04,0-1.96.7-2.22,1.73-.51,2.08-1.71,5.03-4.36,5.11.43-1.62.7-3.29.8-5.03-3.02-1.74-6.37-2.72-9.88-2.72s-6.86.97-9.89,2.73c.09,1.73.37,3.41.8,5.03-2.65-.09-3.84-3.03-4.36-5.11-.25-1.04-1.18-1.73-2.22-1.73-.12,0-.23.01-.36.02C26.58,3.35,0,9.84,0,9.84c0,0,9.74,5.81,17.46,5.81.89,0,1.76-.08,2.58-.25,0,0,4.78,2.1,13.44,2.1,1.41,0,2.92-.06,4.54-.18.51-.05,1.01-.06,1.5-.06,8.15,0,14.9,5.14,14.9,5.14,0,0,6.76-5.14,14.9-5.14.5,0,1.01.02,1.5.06,1.62.13,3.13.18,4.54.18,8.65,0,13.44-2.1,13.44-2.1.82.17,1.69.25,2.58.25,7.72,0,17.46-5.81,17.46-5.81,0,0-26.61-6.48-38.42-8.31ZM69.03,3.53c.12-.47.54-.81,1.04-.81.06,0,.12,0,.17.01,3.44.53,8.17,1.47,13.14,2.53-2.53-.46-6.72-.83-9.86,1.22h-.01c-.76.49-1.4.91-2.69.39l-2.56-1.04c.3-.68.57-1.46.77-2.31ZM65.03,16.46c-.88.18-1.28-.06-1.4-.47l-.2-.91c.14-.02,2.62-.47,3.34,1.12-.53.07-1.66.25-1.74.27ZM62.35,12.92l.35,1.63c-1.13.06-1.42-.3-1.48-.53.21-.38.42-.75.6-1.14.18.02.36.03.53.05ZM62.99,12.97c.73.03,1.4.02,2.02-.03l.77,1.42c-.31.05-2.38.29-2.78-1.35v-.03ZM65.67,12.86c.95-.13,1.79-.36,2.56-.67l1.55,1.41c-.1.03-3.04,1.09-4.11-.74ZM69.33,12.32c-.17-.16-.34-.29-.49-.4.8-.37,1.55-.83,2.3-1.35l2.46,1.46c-.31.2-2.75,1.66-4.27.3ZM73.25,11.1l-1.55-.91c.65-.46,1.31-.95,2.03-1.47l3.39,1.37c-.37.3-2.23,1.69-3.87,1.01ZM76.33,9.07c-.5-.21-.89-.35-1.19-.44l-.82-.34c.06-.03.12-.08.17-.12.84-.58,1.78-1.03,2.77-1.36l3.1.89c-.44.44-2.26,2.09-4.03,1.36ZM67.98,6.38l3.67,1.49c-1.09.85-2.18,1.71-3.49,2.36-.4.15-.96.21-1.34-.15-.01-.01-.02-.02-.03-.03l-1.17-1.06c.94-.51,1.73-1.4,2.36-2.6ZM63.38,9.58c.58,0,1.13-.1,1.64-.3l1.7,1.55c-1.01.32-2.15.5-3.48.46-.53-.1-.53-.5-.42-.81h0c.1-.3.21-.61.31-.91.08,0,.16.01.24.01ZM45.43,9.58c.08,0,.16,0,.23-.01.1.31.2.61.31.91h0c.12.31.12.7-.42.81-1.33.03-2.47-.15-3.48-.46l1.7-1.55c.52.18,1.07.3,1.65.3ZM45.19,15.99c-.12.42-.52.66-1.4.47-.08-.02-1.22-.2-1.74-.27.7-1.59,3.19-1.14,3.34-1.12l-.2.91ZM31.69,10.1l3.39-1.37c.72.52,1.39,1.01,2.03,1.47l-1.55.91c-1.64.67-3.5-.72-3.87-1.01ZM32.48,9.07c-1.77.73-3.59-.92-4.03-1.35l3.1-.89c1.01.34,1.94.77,2.77,1.36.06.03.12.08.17.12l-.82.34c-.3.09-.69.23-1.19.43ZM37.66,10.56c.75.52,1.5.97,2.3,1.35-.15.12-.31.24-.49.4-1.53,1.36-3.96-.1-4.29-.3l2.47-1.46ZM40.58,12.19c.77.31,1.62.54,2.56.67-1.07,1.84-4.02.77-4.12.74l1.56-1.41ZM43.03,14.35l.77-1.42c.62.06,1.29.07,2.02.03v.05c-.42,1.63-2.47,1.39-2.8,1.34ZM46.46,12.92c.17-.01.35-.02.53-.05.18.39.39.76.6,1.14-.07.23-.35.59-1.48.53l.35-1.63ZM43.19,8.99l-1.17,1.06s-.02.01-.03.03c-.39.36-.94.3-1.34.15-1.31-.65-2.41-1.5-3.49-2.36l3.67-1.49c.62,1.19,1.42,2.08,2.36,2.6ZM38.58,2.73c.06-.01.12-.01.17-.01.5,0,.91.34,1.04.81.21.85.47,1.62.79,2.3l-2.58,1.05c-1.31.52-1.93.09-2.69-.39h-.01c-3.13-2.06-7.34-1.69-9.86-1.22,4.97-1.06,9.69-2,13.14-2.53ZM3.39,10.28c4.33-1.03,14.23-3.28,14.23-3.28,4.19-.94,8.92-1.44,12.82-.49l-21.41,6.19c-2.17-.77-4.16-1.69-5.65-2.43ZM19.77,14.22c-.7.15-1.49.22-2.32.22-2.38,0-4.98-.59-7.42-1.4l14.48-4.18c2.84-.52,4.97,1.06,5.33,1.34l-10.06,4.02ZM27.58,11.78c3-1.05,5.46.45,5.77.64l-3.49,2.06c-.92.52-3.14,1.4-4.82,1.05-.1-.02-.18-.03-.27-.05-1.87-.37-3.17-.79-3.79-1.01l6.6-2.69ZM31.28,14.33c2.87-1.54,5.89-.4,6.3-.24l-1.21,1.1c-.64.54-1.54,1.02-2.91,1.09-1.87,0-3.55-.1-5.04-.27l2.87-1.68ZM37.9,16.11c-.59.05-1.17.08-1.76.1l.65-.59c1.84-1.65,5.19-.87,5.31-.84l-.4.76c-.2.29-.5.52-1.33.52-.05,0-.61-.01-.87-.01-.53-.01-1.07.01-1.61.06ZM45.67,16.58c.25-.96.73-1.42,2.07-1.33l.02,1.06c-.01.5-.16,1.2-.9.96h-.01c-.4-.13-.82-.25-1.25-.37l.07-.32ZM48.41,17.44c0-.53.07-1.19.51-1.28.37.53.76,1.05,1.17,1.55.38.51.02.82-.36.66h0c-.42-.18-.84-.37-1.31-.54v-.38ZM54.41,20.34c-4.98-4.07-8.08-9.94-8.63-16.31,2.75-1.46,5.65-2.2,8.63-2.2s5.88.74,8.63,2.2c-.55,6.38-3.65,12.25-8.63,16.31ZM59.07,18.36c-.37.15-.73-.15-.35-.66.4-.5.8-1.02,1.17-1.55.44.09.51.75.51,1.28v.38c-.47.17-.91.36-1.33.54ZM61.94,17.27h0c-.74.24-.9-.46-.9-.96l.02-1.06c1.34-.09,1.81.36,2.07,1.33l.07.31c-.43.13-.84.25-1.26.38ZM70.92,16.11c-.53-.05-1.06-.07-1.61-.07-.24,0-.82.01-.87.01-.82,0-1.13-.22-1.33-.52l-.42-.76c.12-.02,3.48-.81,5.31.84l.65.59c-.58-.02-1.17-.05-1.74-.09ZM75.36,16.28c-1.37-.07-2.28-.54-2.91-1.09l-1.21-1.1c.4-.16,3.43-1.29,6.3.24l2.87,1.69c-1.49.15-3.17.25-5.04.25ZM84.04,15.47c-.07.01-.16.02-.25.05-1.68.35-3.91-.52-4.82-1.05l-3.49-2.06c.3-.2,2.76-1.69,5.77-.64l6.61,2.69c-.65.22-1.93.64-3.81,1.01ZM91.37,14.43c-.83,0-1.62-.08-2.32-.22l-10.05-4.01c.36-.29,2.48-1.86,5.33-1.34l14.48,4.18c-2.45.8-5.06,1.39-7.43,1.39ZM78.37,6.51c3.91-.96,8.62-.45,12.82.49,0,0,9.91,2.25,14.23,3.28-1.49.74-3.48,1.65-5.65,2.43l-21.41-6.19Z"/>
</svg>
